<svg id="Layer_1" data-name="Layer 1" xmlns="http://www.w3.org/2000/svg" viewBox="0 0 208.91 158.83"><defs><style>.cls-1{fill:#fcfcfc;}</style></defs><path class="cls-1" d="M686.78,296.25v1.49c-.14,1.47-.42,2.94-.42,4.41q0,53.84,0,107.67c0,1.46.28,2.92.42,4.38V415c-11.16,6.51-22.3,13.06-33.53,19.43-.87.49-2.62.09-3.64-.48-7.06-3.94-14-8-21-12.09L499,347.05c-4.42-2.55-8.79-5.18-13.34-7.48-.9-.46-2.5.46-3.78.74a16.51,16.51,0,0,0,1.34,3.39c.44.65,1.46.9,2.22,1.33q43.32,25,86.63,50c4.32,2.5,4.34,3.44.15,5.86-19,10.94-38,21.82-56.88,32.83a5,5,0,0,1-5.79,0c-9.65-5.68-19.33-11.3-29.1-16.78-2.13-1.19-2.5-2.68-2.5-4.85q0-56.93,0-113.84a4.73,4.73,0,0,1,2.68-4.76q14.64-8.22,29.1-16.77a4.59,4.59,0,0,1,5.39-.07q78.84,45.58,157.76,91A44.11,44.11,0,0,0,679,371c.92.35,2.3-.57,3.48-.91a12.58,12.58,0,0,0-1.06-3.17c-.42-.65-1.44-.93-2.19-1.36l-87-50.15c-4.36-2.51-4.4-3.35-.1-5.84,19.17-11.09,38.33-22.19,57.58-33.13a5.57,5.57,0,0,1,4.63.18c9.89,5.5,19.67,11.2,29.45,16.91A19.08,19.08,0,0,1,686.78,296.25Z" transform="translate(-477.87 -275.78)"/></svg>